<?xml version="1.0" encoding="UTF-8" standalone="no"?>
<!-- Created with Inkscape (http://www.inkscape.org/) -->

<svg
   version="1.1"
   id="svg69"
   width="85.639999"
   height="55.560001"
   viewBox="0 0 85.64 55.560004"
   sodipodi:docname="tuyaux.svg"
   inkscape:version="1.2.2 (b0a8486541, 2022-12-01)"
   xmlns:inkscape="http://www.inkscape.org/namespaces/inkscape"
   xmlns:sodipodi="http://sodipodi.sourceforge.net/DTD/sodipodi-0.dtd"
   xmlns="http://www.w3.org/2000/svg"
   xmlns:svg="http://www.w3.org/2000/svg">
  <defs
     id="defs73" />
  <sodipodi:namedview
     id="namedview71"
     pagecolor="#ffffff"
     bordercolor="#000000"
     borderopacity="0.25"
     inkscape:showpageshadow="2"
     inkscape:pageopacity="0.0"
     inkscape:pagecheckerboard="0"
     inkscape:deskcolor="#d1d1d1"
     showgrid="true"
     inkscape:zoom="5.0675164"
     inkscape:cx="88.406226"
     inkscape:cy="57.325912"
     inkscape:window-width="1920"
     inkscape:window-height="1030"
     inkscape:window-x="0"
     inkscape:window-y="0"
     inkscape:window-maximized="1"
     inkscape:current-layer="g75">
    <inkscape:grid
       type="xygrid"
       id="grid10606"
       originx="0"
       originy="0" />
  </sodipodi:namedview>
  <g
     inkscape:groupmode="layer"
     inkscape:label="Image"
     id="g75">
    <path
       style="fill:#b3b3b3;stroke:#ff0000"
       d="m 62.318421,1.8956482 1.39537,38.7913268 c 0.54297,1.680866 1.22439,3.292504 2.50465,4.604726 1.91092,2.04122 2.58392,1.568144 3.77452,1.674446 1.93472,-0.02183 3.81496,0.365021 6.0001,-1.534909 1.87295,-1.809 1.39537,-4.558213 2.09305,-6.83732 l 5.72102,-25.814373 -7.95361,-1.395371 -3.34889,8.093154 0.27907,-17.8607538 z"
       id="path7577"
       sodipodi:nodetypes="ccccccccccc" />
    <path
       style="fill:#b3b3b3;stroke:#ff0000"
       d="M 14.109476,0.60284517 C 13.398889,12.288973 10.29951,18.485597 6.8080681,25.368429 1.2164051,34.290687 0.87427411,44.462833 0.69067311,54.672725 L 12.136122,54.376722 c 0.190393,-8.00341 -0.158639,-15.95778 5.624057,-24.469581 4.28096,-8.58966 8.207356,-17.450457 8.090748,-29.40296283 z"
       id="path7665"
       sodipodi:nodetypes="ccccccc" />
  </g>
</svg>
